# Blender v2.90.1 OBJ File: 'walls.blend'
# www.blender.org
mtllib walls.mtl
o Cube.003_Cube.008
v -19.600000 -1.000000 19.199999
v -19.600000 3.000000 19.199999
v 19.600000 -1.000000 19.200001
v 19.600000 3.000000 19.200001
v -19.600000 -1.000000 20.000000
v -19.600000 3.000000 20.000000
v 19.600000 -1.000000 20.000002
v 19.600000 3.000000 20.000002
v -20.400000 -1.000000 20.000002
v -20.400000 3.000000 20.000002
v -20.399998 -1.000000 -20.000002
v -20.399998 3.000000 -20.000002
v -19.599998 -1.000000 20.000002
v -19.599998 3.000000 20.000002
v -19.599998 -1.000000 -20.000002
v -19.599998 3.000000 -20.000002
v 19.600000 -1.000000 20.000000
v 19.600000 3.000000 20.000000
v 19.600000 -1.000000 -20.000002
v 19.600000 3.000000 -20.000002
v 20.400000 -1.000000 20.000000
v 20.400000 3.000000 20.000000
v 20.400002 -1.000000 -20.000002
v 20.400002 3.000000 -20.000002
v -19.600000 -1.000000 -20.000002
v -19.600000 3.000000 -20.000002
v 19.600000 -1.000000 -20.000002
v 19.600000 3.000000 -20.000002
v -19.600000 -1.000000 -19.199999
v -19.600000 3.000000 -19.199999
v 19.600000 -1.000000 -19.199999
v 19.600000 3.000000 -19.199999
vt 0.375000 0.000000
vt 0.625000 0.000000
vt 0.625000 0.250000
vt 0.375000 0.250000
vt 0.625000 0.500000
vt 0.375000 0.500000
vt 0.625000 0.750000
vt 0.375000 0.750000
vt 0.625000 1.000000
vt 0.375000 1.000000
vt 0.125000 0.500000
vt 0.125000 0.750000
vt 0.875000 0.500000
vt 0.875000 0.750000
vt 0.375000 0.000000
vt 0.625000 0.000000
vt 0.625000 0.250000
vt 0.375000 0.250000
vt 0.625000 0.500000
vt 0.375000 0.500000
vt 0.625000 0.750000
vt 0.375000 0.750000
vt 0.625000 1.000000
vt 0.375000 1.000000
vt 0.125000 0.500000
vt 0.125000 0.750000
vt 0.875000 0.500000
vt 0.875000 0.750000
vt 0.375000 0.000000
vt 0.625000 0.000000
vt 0.625000 0.250000
vt 0.375000 0.250000
vt 0.625000 0.500000
vt 0.375000 0.500000
vt 0.625000 0.750000
vt 0.375000 0.750000
vt 0.625000 1.000000
vt 0.375000 1.000000
vt 0.125000 0.500000
vt 0.125000 0.750000
vt 0.875000 0.500000
vt 0.875000 0.750000
vt 0.375000 0.000000
vt 0.625000 0.000000
vt 0.625000 0.250000
vt 0.375000 0.250000
vt 0.625000 0.500000
vt 0.375000 0.500000
vt 0.625000 0.750000
vt 0.375000 0.750000
vt 0.625000 1.000000
vt 0.375000 1.000000
vt 0.125000 0.500000
vt 0.125000 0.750000
vt 0.875000 0.500000
vt 0.875000 0.750000
vn 0.0000 0.0000 -1.0000
vn 1.0000 0.0000 0.0000
vn -0.0000 0.0000 1.0000
vn -1.0000 0.0000 0.0000
vn 0.0000 -1.0000 0.0000
vn 0.0000 1.0000 0.0000
usemtl None
s off
f 1/1/1 2/2/1 4/3/1 3/4/1
f 3/4/2 4/3/2 8/5/2 7/6/2
f 7/6/3 8/5/3 6/7/3 5/8/3
f 5/8/4 6/7/4 2/9/4 1/10/4
f 3/11/5 7/6/5 5/8/5 1/12/5
f 8/5/6 4/13/6 2/14/6 6/7/6
f 9/15/4 10/16/4 12/17/4 11/18/4
f 11/18/1 12/17/1 16/19/1 15/20/1
f 15/20/2 16/19/2 14/21/2 13/22/2
f 13/22/3 14/21/3 10/23/3 9/24/3
f 11/25/5 15/20/5 13/22/5 9/26/5
f 16/19/6 12/27/6 10/28/6 14/21/6
f 17/29/4 18/30/4 20/31/4 19/32/4
f 19/32/1 20/31/1 24/33/1 23/34/1
f 23/34/2 24/33/2 22/35/2 21/36/2
f 21/36/3 22/35/3 18/37/3 17/38/3
f 19/39/5 23/34/5 21/36/5 17/40/5
f 24/33/6 20/41/6 18/42/6 22/35/6
f 25/43/1 26/44/1 28/45/1 27/46/1
f 27/46/2 28/45/2 32/47/2 31/48/2
f 31/48/3 32/47/3 30/49/3 29/50/3
f 29/50/4 30/49/4 26/51/4 25/52/4
f 27/53/5 31/48/5 29/50/5 25/54/5
f 32/47/6 28/55/6 26/56/6 30/49/6
o floor_Cube.009
v -20.000000 -1.200000 20.000000
v -20.000000 -1.000000 20.000000
v -20.000000 -1.200000 -20.000000
v -20.000000 -1.000000 -20.000000
v 20.000000 -1.200000 20.000000
v 20.000000 -1.000000 20.000000
v 20.000000 -1.200000 -20.000000
v 20.000000 -1.000000 -20.000000
vt 0.375000 0.000000
vt 0.625000 0.000000
vt 0.625000 0.250000
vt 0.375000 0.250000
vt 0.625000 0.500000
vt 0.375000 0.500000
vt 0.625000 0.750000
vt 0.375000 0.750000
vt 0.625000 1.000000
vt 0.375000 1.000000
vt 0.125000 0.500000
vt 0.125000 0.750000
vt 0.875000 0.500000
vt 0.875000 0.750000
vn -1.0000 0.0000 0.0000
vn 0.0000 0.0000 -1.0000
vn 1.0000 0.0000 0.0000
vn 0.0000 0.0000 1.0000
vn 0.0000 -1.0000 0.0000
vn 0.0000 1.0000 0.0000
usemtl None
s off
f 33/57/7 34/58/7 36/59/7 35/60/7
f 35/60/8 36/59/8 40/61/8 39/62/8
f 39/62/9 40/61/9 38/63/9 37/64/9
f 37/64/10 38/63/10 34/65/10 33/66/10
f 35/67/11 39/62/11 37/64/11 33/68/11
f 40/61/12 36/69/12 34/70/12 38/63/12
